<svg width="17" height="9" viewBox="0 0 17 9" fill="none" xmlns="http://www.w3.org/2000/svg">
<path fill-rule="evenodd" clip-rule="evenodd" d="M9.44542e-05 1.2998C-0.00085307 1.48529 0.0348333 1.6692 0.105197 1.84082C0.175561 2.01244 0.279247 2.16837 0.410129 2.2998L7.05014 8.59961C7.31362 8.84085 7.65787 8.97461 8.01511 8.97461C8.37235 8.97461 8.7166 8.84085 8.98007 8.59961L15.6301 2.2998C15.7572 2.17639 15.8583 2.02939 15.9273 1.86621C15.9964 1.70303 16.0318 1.52679 16.0318 1.34961C16.0318 1.17243 15.9964 0.997167 15.9273 0.833984C15.8583 0.670801 15.7572 0.523801 15.6301 0.400391C15.3647 0.159086 15.0189 0.0253906 14.6601 0.0253906C14.3014 0.0253906 13.9555 0.159086 13.69 0.400391L8.02011 5.7998L2.34006 0.400391C2.07463 0.159086 1.72881 0.0253906 1.37009 0.0253906C1.01137 0.0253906 0.665551 0.159086 0.400119 0.400391C0.272503 0.512699 0.170699 0.651295 0.101657 0.806641C0.0326145 0.961986 -0.0020584 1.12982 9.44542e-05 1.2998Z" fill="#5D5D5D"/>
</svg>
