<svg width="18" height="27" viewBox="0 0 18 27" fill="none" xmlns="http://www.w3.org/2000/svg">
<path opacity="0.3" d="M5.97013 18.5544V18.1439C5.97818 16.7353 6.10294 15.6124 6.34442 14.7753C6.59394 13.9382 6.95616 13.262 7.43106 12.7469C7.90597 12.2317 8.47747 11.7649 9.14555 11.3463C9.64461 11.0244 10.0913 10.6903 10.4858 10.3442C10.8802 9.99808 11.1941 9.61574 11.4275 9.19718C11.6609 8.77057 11.7777 8.29566 11.7777 7.77246C11.7777 7.21706 11.6448 6.73008 11.3792 6.31152C11.1136 5.89296 10.7554 5.57099 10.3046 5.34561C9.86194 5.12023 9.37093 5.00754 8.83163 5.00754C8.30843 5.00754 7.8134 5.12426 7.34655 5.35769C6.87969 5.58307 6.49735 5.92113 6.19953 6.37189C5.90171 6.8146 5.74072 7.36597 5.71658 8.02601H0.790439C0.830685 6.41616 1.21705 5.08804 1.94953 4.04164C2.68201 2.98719 3.65194 2.20238 4.85933 1.68723C6.06672 1.16403 7.39887 0.902432 8.85578 0.902432C10.4576 0.902432 11.8742 1.16806 13.1058 1.69931C14.3373 2.22251 15.3032 2.98316 16.0035 3.98127C16.7038 4.97937 17.0539 6.18273 17.0539 7.59135C17.0539 8.53311 16.897 9.37023 16.5831 10.1027C16.2772 10.8271 15.8465 11.4711 15.2911 12.0345C14.7358 12.5899 14.0797 13.093 13.3231 13.5438C12.6872 13.9221 12.164 14.3165 11.7535 14.727C11.351 15.1375 11.0492 15.6124 10.848 16.1517C10.6548 16.691 10.5542 17.3551 10.5461 18.1439V18.5544H5.97013ZM8.36075 26.2817C7.55583 26.2817 6.86762 26 6.29612 25.4365C5.73267 24.865 5.45497 24.1808 5.46302 23.384C5.45497 22.5951 5.73267 21.919 6.29612 21.3556C6.86762 20.7921 7.55583 20.5104 8.36075 20.5104C9.12543 20.5104 9.79754 20.7921 10.3771 21.3556C10.9566 21.919 11.2504 22.5951 11.2585 23.384C11.2504 23.9152 11.1096 24.4022 10.8359 24.8449C10.5703 25.2796 10.2201 25.6297 9.78547 25.8953C9.35081 26.1529 8.8759 26.2817 8.36075 26.2817Z" fill="black"/>
</svg>
