<svg width="28" height="27" viewBox="0 0 28 27" fill="none" xmlns="http://www.w3.org/2000/svg">
<path d="M0 1.92857C0 0.863451 0.863451 0 1.92857 0H26.0714C27.1366 0 28 0.863451 28 1.92857C28 2.99369 27.1365 3.85714 26.0714 3.85714H1.92857C0.86345 3.85714 0 2.99369 0 1.92857Z" fill="#289925"/>
<path d="M0 25.0714C0 24.0063 0.863451 23.1429 1.92857 23.1429H26.0714C27.1366 23.1429 28 24.0063 28 25.0714C28 26.1365 27.1365 27 26.0714 27H1.92857C0.86345 27 0 26.1365 0 25.0714Z" fill="#289925"/>
<path d="M0 13.5C0 12.4349 0.863451 11.5714 1.92857 11.5714H26.0714C27.1366 11.5714 28 12.4349 28 13.5C28 14.5651 27.1365 15.4286 26.0714 15.4286H1.92857C0.86345 15.4286 0 14.5651 0 13.5Z" fill="#289925"/>
</svg>
