<svg width="17" height="9" viewBox="0 0 17 9" fill="none" xmlns="http://www.w3.org/2000/svg">
<path fill-rule="evenodd" clip-rule="evenodd" d="M1.83848e-05 7.7002C-0.000929139 7.51471 0.0347572 7.3308 0.105121 7.15918C0.175485 6.98756 0.279171 6.83163 0.410053 6.7002L7.05007 0.400391C7.31355 0.159149 7.65779 0.0253906 8.01503 0.0253906C8.37227 0.0253906 8.71652 0.159149 8.98 0.400391L15.63 6.7002C15.757 6.82368 15.858 6.97159 15.9269 7.13477C15.9958 7.29794 16.0314 7.47325 16.0314 7.65039C16.0314 7.82753 15.9958 8.00284 15.9269 8.16602C15.858 8.32919 15.757 8.47613 15.63 8.59961C15.3646 8.84091 15.0188 8.97461 14.6601 8.97461C14.3013 8.97461 13.9554 8.84091 13.69 8.59961L8.02004 3.2002L2.33998 8.59961C2.07455 8.84091 1.72874 8.97461 1.37001 8.97461C1.01129 8.97461 0.665475 8.84091 0.400043 8.59961C0.157965 8.3608 0.0150621 8.03991 1.83848e-05 7.7002Z" fill="white"/>
</svg>
